<svg width="182" height="181" viewBox="0 0 182 181" fill="none" xmlns="http://www.w3.org/2000/svg">
<path d="M94.1111 0H26.8889V13.4444H13.4444V26.8889H0V94.1111H13.4444V107.556H26.8889V121H94.1111V107.556H107.556V94.1111H121V26.8889H107.556V13.4444H94.1111V0ZM94.1111 13.4444V26.8889H107.556V94.1111H94.1111V107.556H26.8889V94.1111H13.4444V26.8889H26.8889V13.4444H94.1111Z" fill="#FFEA00"/>
<rect x="13" y="13" width="95" height="95" fill="#FFEA00"/>
<path d="M155.111 60H87.8889V73.4444H74.4444V86.8889H61V154.111H74.4444V167.556H87.8889V181H155.111V167.556H168.556V154.111H182V86.8889H168.556V73.4444H155.111V60ZM155.111 73.4444V86.8889H168.556V154.111H155.111V167.556H87.8889V154.111H74.4444V86.8889H87.8889V73.4444H155.111Z" fill="#0A0A0A"/>
<rect x="74" y="73" width="95" height="95" fill="#0A0A0A"/>
</svg>
