<svg width="128" height="128" viewBox="0 0 128 128" fill="none" xmlns="http://www.w3.org/2000/svg">
<path d="M41.4816 16H91.852V26.6667H101.926V37.3333H112V48V112H106.963V106.667H101.926V101.333H91.852V106.667H86.815V112H76.7409V106.667H71.7039V101.333H56.5928V106.667H51.5557V112H46.5187V106.667H41.4816V101.333H31.4076V106.667H26.3705V112H21.3335V37.3333H31.4076V26.6667H41.4816V16Z" fill="#FE89C6"/>
<path d="M52.2222 37.2222H59.3333V62.1111H52.2222V68.3333H45.1111V62.1111H38V37.2222H45.1111V31H52.2222V37.2222Z" fill="white"/>
<path d="M54.0002 30H43.3335V51.3333H54.0002V30Z" fill="#1F1ED5"/>
<path d="M89.5557 37.2222H96.6668V62.1111H89.5557V68.3333H82.4446V62.1111H75.3335V37.2222H82.4446V31H89.5557V37.2222Z" fill="white"/>
<path d="M91.3337 30H80.667V51.3333H91.3337V30Z" fill="#1F1ED5"/>
</svg>
