<svg width="128" height="128" viewBox="0 0 128 128" fill="none" xmlns="http://www.w3.org/2000/svg">
<path d="M41.4816 16H91.852V26.6667H101.926V37.3333H112V48V112H106.963V106.667H101.926V101.333H91.852V106.667H86.815V112H76.7409V106.667H71.7039V101.333H56.5928V106.667H51.5557V112H46.5187V106.667H41.4816V101.333H31.4076V106.667H26.3705V112H21.3335V37.3333H31.4076V26.6667H41.4816V16Z" fill="#FFBA42"/>
<path d="M56.8887 38.2222H63.9998V63.1111H56.8887V69.3333H49.7776V63.1111H42.6665V38.2222H49.7776V32H56.8887V38.2222Z" fill="white"/>
<path d="M63.9997 42.6667H53.333V64.0001H63.9997V42.6667Z" fill="#1F1ED5"/>
<path d="M94.2222 38.2222H101.333V63.1111H94.2222V69.3333H87.1111V63.1111H80V38.2222H87.1111V32H94.2222V38.2222Z" fill="white"/>
<path d="M101.333 42.6667H90.6665V64.0001H101.333V42.6667Z" fill="#1F1ED5"/>
</svg>
