<svg width="20" height="20" viewBox="0 0 20 20" fill="none" xmlns="http://www.w3.org/2000/svg">
<path d="M8.072 9.301C8.072 9.301 9.964 9.154 9.964 6.842C9.964 4.527 8.416 3.401 6.454 3.401H0V16.327H6.454C6.454 16.327 10.395 16.456 10.395 12.511C10.394 12.51 10.566 9.301 8.072 9.301ZM2.844 5.697H6.454C6.454 5.697 7.332 5.697 7.332 7.041C7.332 8.387 6.816 8.582 6.23 8.582H2.844V5.697ZM6.271 14.029H2.844V10.574H6.454C6.454 10.574 7.762 10.556 7.762 12.349C7.762 13.861 6.785 14.018 6.271 14.029ZM15.649 6.688C10.878 6.688 10.882 11.655 10.882 11.655C10.882 11.655 10.556 16.596 15.649 16.596C15.649 16.596 19.892 16.85 19.892 13.159H17.71C17.71 13.159 17.782 14.55 15.722 14.55C15.722 14.55 13.538 14.702 13.538 12.3H19.961C19.962 12.299 20.67 6.688 15.649 6.688ZM17.59 10.574H13.516C13.516 10.574 13.782 8.582 15.698 8.582C17.614 8.582 17.59 10.574 17.59 10.574ZM18.097 4.16H12.98V5.754H18.097V4.16Z" fill="white"/>
</svg>
