<svg width="32" height="32" viewBox="0 0 32 32" fill="none" xmlns="http://www.w3.org/2000/svg">
<path d="M10.6665 25.3333H6.6665V12H10.6665V25.3333ZM25.3332 25.3333H21.3332V18.2107C21.3332 16.3547 20.6718 15.4307 19.3612 15.4307C18.3225 15.4307 17.6638 15.948 17.3332 16.984V25.3333H13.3332C13.3332 25.3333 13.3865 13.3333 13.3332 12H16.4905L16.7345 14.6667H16.8172C17.6372 13.3333 18.9478 12.4293 20.7452 12.4293C22.1118 12.4293 23.2172 12.8093 24.0612 13.764C24.9105 14.72 25.3332 16.0027 25.3332 17.804V25.3333Z" fill="white"/>
<path d="M8.66676 10.6666C9.80815 10.6666 10.7334 9.7712 10.7334 8.66663C10.7334 7.56206 9.80815 6.66663 8.66676 6.66663C7.52538 6.66663 6.6001 7.56206 6.6001 8.66663C6.6001 9.7712 7.52538 10.6666 8.66676 10.6666Z" fill="currentColor"/>
</svg>
