<svg width="225" height="225" viewBox="0 0 225 225" fill="none" xmlns="http://www.w3.org/2000/svg">
<rect x="37.5" y="29.5" width="137" height="157" rx="8.5" fill="#FF6200" stroke="black" stroke-width="3"/>
<path d="M180.449 30.0406L180.967 28.1087L179.035 27.5911L182.141 16L186.005 17.0353L182.899 28.6264L188.695 30.1793L191.8 18.5882L195.664 19.6235L192.558 31.2146L190.626 30.6969L190.109 32.6288L180.449 30.0406ZM193.972 33.6641L195.008 29.8004L196.94 30.318L197.457 28.3861L199.389 28.9038L199.907 26.9719L197.975 26.4543L198.493 24.5224L196.561 24.0048L197.596 20.1411L201.46 21.1764L200.424 25.0401L202.356 25.5577L201.839 27.4896L203.77 28.0072L204.288 26.0754L206.22 26.593L207.255 22.7293L211.119 23.7646L210.084 27.6283L208.152 27.1106L207.634 29.0425L205.702 28.5249L205.185 30.4567L207.116 30.9743L206.599 32.9062L208.531 33.4238L207.495 37.2875L203.632 36.2523L204.667 32.3886L202.735 31.8709L203.253 29.9391L201.321 29.4214L200.803 31.3533L198.871 30.8356L197.836 34.6993L193.972 33.6641Z" fill="#1F1ED5"/>
<path d="M20.5553 215.288L20.0377 213.356L18.1058 213.873L15 202.282L18.8637 201.247L21.9695 212.838L27.7651 211.285L24.6593 199.694L28.523 198.659L31.6288 210.25L29.6969 210.768L30.2146 212.699L20.5553 215.288ZM36.0101 211.146L35.4925 209.215L39.3562 208.179L36.768 198.52L32.9043 199.555L32.3867 197.623L43.9778 194.518L44.4954 196.45L40.6317 197.485L43.2199 207.144L47.0836 206.109L47.6012 208.041L36.0101 211.146Z" fill="black"/>
<path d="M169.038 194.381L169.555 192.449L171.487 192.967L172.005 191.035L177.8 192.588L177.283 194.52L179.215 195.038L178.697 196.97L174.833 195.934L175.351 194.002L173.419 193.485L172.901 195.417L169.038 194.381ZM181.904 208.182L182.422 206.25L180.49 205.732L183.078 196.073L185.01 196.591L185.528 194.659L195.187 197.247L194.669 199.179L196.601 199.696L194.013 209.356L192.081 208.838L191.564 210.77L181.904 208.182ZM184.354 206.767L190.149 208.32L192.738 198.661L186.942 197.108L184.354 206.767ZM199.947 202.664L200.465 200.732L202.397 201.249L202.914 199.317L208.71 200.87L208.192 202.802L210.124 203.32L209.607 205.252L205.743 204.216L206.261 202.285L204.329 201.767L203.811 203.699L199.947 202.664Z" fill="#1F1ED5"/>
<rect x="21.5" y="21.5" width="137" height="157" rx="8.5" fill="#FDE033" stroke="black" stroke-width="3"/>
<mask id="path-6-inside-1_307_1734" fill="white">
<path fill-rule="evenodd" clip-rule="evenodd" d="M40.5 43.9687C39.4006 45.2144 37.792 46 36 46C32.6863 46 30 43.3137 30 40C30 36.6863 32.6863 34 36 34C37.792 34 39.4006 34.7856 40.5 36.0313C41.5994 34.7856 43.208 34 45 34C46.792 34 48.4006 34.7856 49.5 36.0313C50.5994 34.7856 52.208 34 54 34C55.792 34 57.4006 34.7856 58.5 36.0313C59.5994 34.7856 61.208 34 63 34C66.3137 34 69 36.6863 69 40C69 43.3137 66.3137 46 63 46C61.208 46 59.5994 45.2144 58.5 43.9687C57.4006 45.2144 55.792 46 54 46C52.208 46 50.5994 45.2144 49.5 43.9687C48.4006 45.2144 46.792 46 45 46C43.208 46 41.5994 45.2144 40.5 43.9687Z"/>
</mask>
<path fill-rule="evenodd" clip-rule="evenodd" d="M40.5 43.9687C39.4006 45.2144 37.792 46 36 46C32.6863 46 30 43.3137 30 40C30 36.6863 32.6863 34 36 34C37.792 34 39.4006 34.7856 40.5 36.0313C41.5994 34.7856 43.208 34 45 34C46.792 34 48.4006 34.7856 49.5 36.0313C50.5994 34.7856 52.208 34 54 34C55.792 34 57.4006 34.7856 58.5 36.0313C59.5994 34.7856 61.208 34 63 34C66.3137 34 69 36.6863 69 40C69 43.3137 66.3137 46 63 46C61.208 46 59.5994 45.2144 58.5 43.9687C57.4006 45.2144 55.792 46 54 46C52.208 46 50.5994 45.2144 49.5 43.9687C48.4006 45.2144 46.792 46 45 46C43.208 46 41.5994 45.2144 40.5 43.9687Z" fill="white"/>
<path d="M40.5 43.9687L41.9995 42.6453C41.6198 42.2151 41.0737 41.9687 40.5 41.9687C39.9263 41.9687 39.3802 42.2151 39.0005 42.6453L40.5 43.9687ZM40.5 36.0313L39.0005 37.3547C39.3802 37.7849 39.9263 38.0313 40.5 38.0313C41.0737 38.0313 41.6198 37.7849 41.9995 37.3547L40.5 36.0313ZM49.5 36.0313L48.0005 37.3547C48.3802 37.7849 48.9263 38.0313 49.5 38.0313C50.0737 38.0313 50.6198 37.7849 50.9995 37.3547L49.5 36.0313ZM58.5 36.0313L57.0005 37.3547C57.3802 37.7849 57.9263 38.0313 58.5 38.0313C59.0737 38.0313 59.6198 37.7849 59.9995 37.3547L58.5 36.0313ZM58.5 43.9687L59.9995 42.6453C59.6198 42.2151 59.0737 41.9687 58.5 41.9687C57.9263 41.9687 57.3802 42.2151 57.0005 42.6453L58.5 43.9687ZM49.5 43.9687L50.9995 42.6453C50.6198 42.2151 50.0737 41.9687 49.5 41.9687C48.9263 41.9687 48.3802 42.2151 48.0005 42.6453L49.5 43.9687ZM36 48C38.3897 48 40.5365 46.9497 41.9995 45.2922L39.0005 42.6453C38.2647 43.479 37.1944 44 36 44V48ZM28 40C28 44.4183 31.5817 48 36 48V44C33.7909 44 32 42.2091 32 40H28ZM36 32C31.5817 32 28 35.5817 28 40H32C32 37.7909 33.7909 36 36 36V32ZM41.9995 34.7078C40.5365 33.0503 38.3897 32 36 32V36C37.1944 36 38.2647 36.521 39.0005 37.3547L41.9995 34.7078ZM45 32C42.6103 32 40.4635 33.0503 39.0005 34.7078L41.9995 37.3547C42.7354 36.521 43.8056 36 45 36V32ZM50.9995 34.7078C49.5365 33.0503 47.3897 32 45 32V36C46.1944 36 47.2646 36.521 48.0005 37.3547L50.9995 34.7078ZM54 32C51.6103 32 49.4635 33.0503 48.0005 34.7078L50.9995 37.3547C51.7354 36.521 52.8056 36 54 36V32ZM59.9995 34.7078C58.5365 33.0503 56.3897 32 54 32V36C55.1944 36 56.2646 36.521 57.0005 37.3547L59.9995 34.7078ZM59.9995 37.3547C60.7354 36.521 61.8056 36 63 36V32C60.6103 32 58.4635 33.0503 57.0005 34.7078L59.9995 37.3547ZM63 36C65.2091 36 67 37.7909 67 40H71C71 35.5817 67.4183 32 63 32V36ZM67 40C67 42.2091 65.2091 44 63 44V48C67.4183 48 71 44.4183 71 40H67ZM63 44C61.8056 44 60.7354 43.479 59.9995 42.6453L57.0005 45.2922C58.4635 46.9497 60.6103 48 63 48V44ZM54 48C56.3897 48 58.5365 46.9497 59.9995 45.2922L57.0005 42.6453C56.2646 43.479 55.1944 44 54 44V48ZM48.0005 45.2922C49.4635 46.9497 51.6103 48 54 48V44C52.8056 44 51.7354 43.479 50.9995 42.6453L48.0005 45.2922ZM45 48C47.3897 48 49.5365 46.9497 50.9995 45.2922L48.0005 42.6453C47.2646 43.479 46.1944 44 45 44V48ZM39.0005 45.2922C40.4635 46.9497 42.6103 48 45 48V44C43.8056 44 42.7354 43.479 41.9995 42.6453L39.0005 45.2922Z" fill="black" mask="url(#path-6-inside-1_307_1734)"/>
<rect x="130" y="32" width="17" height="3" rx="1.5" fill="black"/>
<rect x="130" y="38" width="17" height="3" rx="1.5" fill="black"/>
<rect x="130" y="44" width="17" height="3" rx="1.5" fill="black"/>
<rect x="41.5" y="66.5" width="97" height="67" fill="white" stroke="black" stroke-width="3"/>
<rect x="68" y="83" width="44" height="32" rx="14" fill="#FDE033"/>
<rect x="50" y="146" width="80" height="20" rx="10" fill="#33FD4B" stroke="black" stroke-width="3"/>
<path d="M75 160V153H81V154H82V157H81V158H77V160H75ZM77 157H80V154H77V157Z" fill="#0A0A0A"/>
<path d="M84 160V153H86V159H90V160H84Z" fill="#0A0A0A"/>
<path d="M91 160V155H92V154H93V153H96V154H97V155H98V160H96V158H93V160H91ZM93 157H96V155H95V154H94V155H93V157Z" fill="#0A0A0A"/>
<path d="M102 160V157H101V156H100V153H102V156H104V153H106V156H105V157H104V160H102Z" fill="#0A0A0A"/>
<path d="M86 97V93H82V97H78V101H81.998L82 105H86L85.998 101H90V97H86Z" fill="#FF0000"/>
<path d="M100 83C103.183 83 106.235 84.2643 108.485 86.5147C110.736 88.7652 112 91.8174 112 95V103C112 106.183 110.736 109.235 108.485 111.485C106.235 113.736 103.183 115 100 115H80C76.8174 115 73.7652 113.736 71.5147 111.485C69.2643 109.235 68 106.183 68 103V95C68 91.8174 69.2643 88.7652 71.5147 86.5147C73.7652 84.2643 76.8174 83 80 83H100ZM100 87H80C77.9475 87 75.9735 87.7889 74.4864 89.2034C72.9992 90.618 72.1126 92.5501 72.01 94.6L72 95V103C72 105.052 72.7889 107.026 74.2034 108.514C75.618 110.001 77.5501 110.887 79.6 110.99L80 111H100C102.052 111 104.026 110.211 105.514 108.797C107.001 107.382 107.887 105.45 107.99 103.4L108 103V95C108 92.9475 107.211 90.9735 105.797 89.4864C104.382 87.9992 102.45 87.1126 100.4 87.01L100 87Z" fill="black"/>
<path d="M102 105V101H98V105H102Z" fill="white"/>
<path d="M98 97V93H94V97H98Z" fill="white"/>
<path d="M127.5 175.75L120 157L142.5 163.25L131.25 168.25L127.5 175.75Z" fill="#0080FF" stroke="black" stroke-width="3" stroke-linejoin="round"/>
</svg>
