<svg width="225" height="225" viewBox="0 0 225 225" fill="none" xmlns="http://www.w3.org/2000/svg">
<path d="M64 82.5L56 88L66 86L57 94.5C60.1667 93.3333 66.4 91.1 66 91.5C65.6 91.9 59.8333 97.3333 57 100L62.5 99.5L59.5 105.5L67.5 103.5L58.5 113L69 110.5L57.7619 121.5" stroke="#BB7544" stroke-width="3" stroke-linecap="round" stroke-linejoin="round"/>
<path d="M67.5 122.5L53 131.5L69 129L53 143L66.5 143.5L52 155.5L68 152L57 168L70 164.5L68 176.5" stroke="#BB7544" stroke-width="3" stroke-linecap="round" stroke-linejoin="round"/>
<path d="M170.474 203.508L171.026 201.586L169.104 201.034L171.863 191.422L173.786 191.974L174.337 190.052L183.949 192.811L183.397 194.734L185.32 195.286L182.56 204.897L180.638 204.345L180.086 206.268L170.474 203.508ZM172.948 202.138L178.715 203.794L181.475 194.182L175.708 192.526L172.948 202.138ZM188.327 206.553L190.25 207.105L189.698 209.027L185.853 207.923L186.405 206.001L184.483 205.449L186.69 197.76L190.535 198.864L188.327 206.553ZM194.379 199.967L192.172 207.657L190.25 207.105L192.457 199.415L194.379 199.967ZM200.147 201.623L197.939 209.312L196.017 208.76L195.465 210.683L191.62 209.579L192.172 207.657L194.094 208.209L196.302 200.519L200.147 201.623ZM201.232 212.338L201.784 210.416L199.861 209.864L202.621 200.252L204.543 200.804L205.095 198.882L214.707 201.641L214.155 203.564L216.077 204.116L213.318 213.727L211.395 213.176L210.844 215.098L201.232 212.338ZM203.706 210.968L209.473 212.624L212.232 203.012L206.465 201.356L203.706 210.968Z" fill="#1F1ED5"/>
<path d="M20.4803 41.6219L19.9274 39.6999L18.0053 40.2529L16.8994 36.4088L18.8215 35.8558L18.2685 33.9338L22.1126 32.8279L22.6655 34.7499L24.5876 34.197L25.6935 38.0411L23.7714 38.594L24.3244 40.5161L20.4803 41.6219ZM38.8479 36.0215C39.0307 36.6571 39.1102 37.2613 39.0863 37.8342C39.0727 38.4042 38.9513 38.9275 38.7222 39.4041C38.4901 39.8704 38.1575 40.2769 37.7244 40.6235C37.2884 40.9598 36.7475 41.2209 36.1017 41.4067C35.4354 41.5983 34.8216 41.6639 34.2603 41.6034C33.7093 41.54 33.2167 41.3709 32.7825 41.0962C32.3453 40.8113 31.971 40.4362 31.6596 39.9708C31.3451 39.4952 31.0965 38.9396 30.9137 38.3041L32.3437 37.8927C32.5295 38.5385 32.7773 39.0721 33.0872 39.4935C33.4074 39.912 33.794 40.1948 34.247 40.3419C34.7 40.4891 35.2136 40.4801 35.7876 40.3149C36.3719 40.1468 36.8117 39.8816 37.107 39.5191C37.4126 39.1537 37.5847 38.7102 37.6233 38.1885C37.6721 37.6639 37.6037 37.0787 37.4179 36.4329L38.8479 36.0215ZM45.602 34.3947L45.0491 32.4727L43.127 33.0257L42.0211 29.1816L43.9432 28.6286L43.3902 26.7066L47.2343 25.6007L47.7872 27.5227L49.7093 26.9698L50.8152 30.8139L48.8931 31.3668L49.4461 33.2888L45.602 34.3947Z" fill="black"/>
<path d="M54.9999 49C44.3333 53.3333 23.5999 65.4 25.9999 79M28.5001 53.5C25.0001 55.8333 18.1001 61.8 18.5001 67M168 160.5C166 168.167 158.2 185.3 143 192.5M172 172C169 177.333 161.4 188.9 155 192.5" stroke="#D46E00" stroke-width="4" stroke-linecap="round"/>
<path d="M90.5492 193.308C87.0542 193.353 83.1542 192.648 80.1392 190.743C77.2742 188.973 74.8892 187.503 71.6792 186.783C58.4042 184.218 43.3592 177.243 42.1292 161.793C40.9292 148.023 47.2142 135.528 50.4692 122.718C51.6092 118.053 52.5992 113.493 51.0092 108.918C48.4142 100.803 47.8442 91.0683 53.2292 83.8833C57.2792 78.2133 64.7492 74.8533 70.9142 73.9233C75.4592 72.8883 80.0042 71.8233 84.5942 70.8783C93.7292 68.6883 103.689 68.4633 112.764 71.0733C117.174 72.1383 122.244 73.4283 126.279 74.3733C133.734 75.5583 141.039 79.2933 144.984 85.9383C148.884 92.6133 148.329 100.818 146.229 107.943C145.794 109.473 145.149 111.438 145.149 113.028C145.449 125.778 152.139 137.208 154.209 149.793C158.814 172.383 145.629 182.493 125.094 186.693C120.564 187.743 117.369 191.298 112.764 192.498C109.434 193.533 104.874 193.113 101.469 193.248L90.5492 193.308ZM90.5492 189.708L101.469 189.768C104.439 189.618 109.104 190.128 111.909 189.258C116.154 188.073 119.724 184.533 124.254 183.618C159.234 176.808 155.184 157.203 145.974 129.318C144.234 123.153 141.999 116.523 143.379 109.998C144.729 105.678 145.869 101.373 145.839 96.8883C146.079 85.5483 136.764 77.7333 126.084 76.1133C121.509 75.0783 116.934 73.9983 112.344 73.1133C107.814 72.1833 103.344 71.5683 98.7242 71.6283C89.5592 71.7633 80.5142 74.5833 71.5442 76.5483C65.4242 77.5533 59.1692 80.5383 55.5392 85.5483C50.1542 92.7183 52.0142 102.468 54.5942 110.568C55.4042 114.903 54.4742 119.403 53.4992 123.468C50.4242 136.008 44.3342 148.458 45.5192 161.403C46.6442 175.173 60.6842 180.933 72.5792 183.213C75.8792 183.933 79.2542 185.838 81.9692 187.593C84.6242 189.258 87.4442 189.678 90.5492 189.693V189.708Z" fill="#1D1D1B"/>
<path d="M154.765 80.599C157.921 74.0551 156.651 66.9034 151.928 64.6252C147.205 62.347 140.817 65.805 137.661 72.3488C134.504 78.8927 137.777 82.722 142.5 85.0002C147.223 87.2784 151.609 87.1428 154.765 80.599Z" stroke="#1D1D1B" stroke-width="1.5" stroke-miterlimit="10"/>
<path d="M151.335 79.5421C153.483 75.0875 153.12 70.461 150.524 69.2086C147.927 67.9561 144.08 70.5519 141.931 75.0065C139.783 79.4611 140.146 84.0876 142.743 85.3401C145.339 86.5925 149.186 83.9967 151.335 79.5421Z" stroke="#1D1D1B" stroke-width="1.5" stroke-miterlimit="10"/>
<path d="M55 83.5C59.7232 81.2218 62.9758 78.9154 59.8194 72.3715C56.663 65.8277 50.2753 62.3697 45.5521 64.6479C40.8289 66.9261 39.5588 74.0778 42.7151 80.6216C45.8715 87.1655 52 95 55 83.5Z" stroke="#1D1D1B" stroke-width="1.5" stroke-miterlimit="10"/>
<path d="M54.2883 84.4645C56.885 83.212 57.3437 78.7836 55.3129 74.5732C53.282 70.3629 49.5307 67.9651 46.9341 69.2175C44.3374 70.47 43.8787 74.8985 45.9096 79.1088C47.9404 83.3192 51.6917 85.717 54.2883 84.4645Z" stroke="#1D1D1B" stroke-width="1.5" stroke-miterlimit="10"/>
<path d="M98.9043 136.773C103.134 136.968 106.569 133.653 107.364 129.678C107.319 129.513 107.394 129.348 107.544 129.273C112.524 126.648 119.574 127.353 123.489 131.598C127.014 135.378 127.914 141.783 123.234 144.993C115.704 149.793 106.089 147.318 98.5293 144.183H99.1143C91.5393 147.303 81.9093 149.718 74.3793 144.933C71.7393 143.178 70.5243 139.563 71.3943 136.548C73.3893 128.643 83.0793 125.793 89.9193 129.228C90.0843 129.303 90.1743 129.483 90.1443 129.663C91.0143 133.728 94.5993 137.043 98.9193 136.773H98.9043ZM98.9193 138.273C93.9393 138.573 89.6343 134.733 88.6593 129.948L89.1543 130.518C82.6593 129.333 75.4593 129.723 73.2843 137.148C72.7143 139.203 73.4193 141.993 75.5043 143.373C82.2843 147.633 91.3443 145.503 98.4993 142.803H99.0843C104.079 144.798 109.494 145.998 114.759 145.623C119.619 145.458 125.574 142.503 124.104 137.178C121.839 129.663 114.909 129.528 108.324 130.518L108.834 129.933C107.949 134.628 103.794 138.468 98.9193 138.273Z" fill="#1D1D1B"/>
<path d="M98.7094 121.563C98.7094 121.563 108.504 122.028 108.369 126.813C107.484 131.058 106.194 137.088 98.8593 137.118C92.3043 137.148 89.1093 132.018 88.5993 127.098C88.1643 122.928 95.0194 121.548 98.7094 121.548V121.563Z" fill="#1D1D1B"/>
<path d="M98.7243 120.843C102.534 121.248 108.804 121.968 109.089 126.843C108.744 128.703 108.309 130.593 107.484 132.408C105.204 138.303 96.9993 139.443 92.2893 135.753C89.5443 133.578 88.0443 130.203 87.8643 126.768C88.2093 121.788 94.7793 121.023 98.7243 120.843ZM98.6793 122.283C95.6493 122.418 91.1193 122.928 89.5293 125.733C88.9743 127.113 89.6793 129.093 90.1743 130.503C92.3793 137.268 103.269 138.798 106.134 131.793C106.839 130.413 107.364 127.908 107.619 126.798C107.274 123.138 101.574 122.613 98.6643 122.283H98.6793Z" fill="#1D1D1B"/>
<path d="M49.5693 127.293C49.5693 127.293 65.6043 119.328 82.3893 134.133" stroke="#1D1D1B" stroke-width="1.5" stroke-miterlimit="10" stroke-linecap="round"/>
<path d="M44.8594 140.613C44.8594 140.613 57.3394 127.788 78.0844 136.173" stroke="#1D1D1B" stroke-width="1.5" stroke-miterlimit="10" stroke-linecap="round"/>
<path d="M48.5947 153.514C48.5947 153.514 57.1747 137.794 79.4047 140.314" stroke="#1D1D1B" stroke-width="1.5" stroke-miterlimit="10" stroke-linecap="round"/>
<path d="M148.554 126.933C148.554 126.933 132.519 118.968 115.734 133.773" stroke="#1D1D1B" stroke-width="1.5" stroke-miterlimit="10" stroke-linecap="round"/>
<path d="M153.249 140.252C153.249 140.252 140.769 127.427 120.024 135.812" stroke="#1D1D1B" stroke-width="1.5" stroke-miterlimit="10" stroke-linecap="round"/>
<path d="M149.514 153.153C149.514 153.153 140.934 137.433 118.704 139.953" stroke="#1D1D1B" stroke-width="1.5" stroke-miterlimit="10" stroke-linecap="round"/>
<path d="M117.01 134.599C117.085 137.569 112.66 137.644 112.66 134.599C112.855 131.779 116.83 131.899 117.01 134.599Z" fill="#1D1D1B"/>
<path d="M120.894 136.143C121.074 138.453 117.519 138.603 117.504 136.143C117.639 133.863 120.819 133.953 120.894 136.143Z" fill="#1D1D1B"/>
<path d="M119.185 140.478C119.275 143.598 114.595 143.703 114.55 140.478C114.685 137.358 119.125 137.418 119.185 140.478Z" fill="#1D1D1B"/>
<path d="M80.7398 134.599C81.1148 132.364 84.3847 132.079 84.7447 134.599C84.8497 137.659 80.4848 137.539 80.7398 134.599Z" fill="#1D1D1B"/>
<path d="M76.5997 136.143C76.5997 133.968 79.9297 133.833 79.9897 136.143C79.9297 138.453 76.5847 138.318 76.5997 136.143Z" fill="#1D1D1B"/>
<path d="M78.2644 140.479C78.1444 137.299 82.9144 137.194 82.8994 140.479C82.6594 143.524 78.4894 143.359 78.2644 140.479Z" fill="#1D1D1B"/>
<path d="M117.444 176.118C118.989 174.078 119.034 171.093 119.289 168.573C119.694 162.963 120.699 157.398 121.479 151.803C121.914 148.998 122.379 146.178 122.979 143.358L124.014 144.078C117.849 146.583 110.919 147.048 104.469 145.383C102.294 144.858 100.224 144.003 98.2291 143.028L98.7841 143.178H98.7091L99.3541 143.028C93.3841 146.028 86.4691 146.868 79.9141 145.668C77.7391 145.293 75.6541 144.678 73.5691 143.793L74.6191 143.073C75.4291 145.893 75.9241 148.743 76.3891 151.563C77.2891 157.188 77.7541 162.843 78.2041 168.498C78.4591 170.868 78.8191 174.198 80.2141 175.953C91.5091 187.368 105.639 185.763 117.474 176.088L117.444 176.118ZM118.689 177.603C113.604 181.368 107.754 184.623 101.379 185.388C93.0541 186.618 84.5491 183.498 78.5191 177.633C77.5891 176.748 76.5841 174.693 76.1491 173.433C72.5191 163.788 71.4391 153.303 73.0741 143.118C73.1041 142.533 73.5241 142.023 74.1241 142.398C81.9091 144.993 90.8041 144.513 98.1091 140.688C98.5141 140.493 98.9941 140.493 99.3841 140.688C106.719 144.423 115.554 145.008 123.414 142.668C123.729 142.473 124.134 142.578 124.329 142.893C125.184 148.773 124.899 154.773 124.389 160.683C124.089 165.048 122.979 169.383 121.164 173.433C120.444 174.948 120.009 176.328 118.674 177.588L118.689 177.603Z" fill="#1D1D1B"/>
<path d="M83.809 179.584C88.6638 182.971 95.3701 184.616 101.508 183.751C102.456 183.553 103.505 183.397 104.453 183.184C105.065 182.986 106.727 182.532 107.325 182.334C107.937 182.107 109.468 181.441 110.095 181.2C111.305 180.633 112.457 179.966 113.638 179.357L113.302 179.811C114.935 170.158 107.573 165.934 98.5921 166.047C89.2615 166.061 82.6281 170.002 83.809 179.612V179.584ZM82.3803 180.42C81.7534 178.209 81.972 175.828 82.526 173.616C84.3193 166.657 92.017 164.417 98.5921 164.502C105.123 164.474 112.763 166.742 114.512 173.659C115.096 175.785 115.139 177.94 114.731 180.122C114.687 180.307 114.571 180.463 114.41 180.562C113.186 181.214 111.99 181.908 110.736 182.504C110.08 182.787 108.477 183.439 107.85 183.708C104.774 184.729 101.843 185.395 98.5775 185.494C92.9063 185.608 86.7977 184.006 82.3948 180.434L82.3803 180.42Z" fill="#1D1D1B"/>
<path d="M95 165.5C95 165.5 100.112 167.988 99.9981 172.5" stroke="#1D1D1B" stroke-width="1.5" stroke-linecap="round" stroke-linejoin="round"/>
<path d="M84.8939 165.708C83.4689 160.683 83.5289 155.358 83.3489 150.168C83.3189 148.503 83.3489 146.778 83.4539 145.113C83.4689 144.693 83.8289 144.378 84.2339 144.408C88.9889 144.798 94.0439 143.793 98.1839 141.453C98.6639 141.153 99.3239 141.543 99.3089 142.098L99.2039 164.763C99.2039 165.168 98.8739 165.498 98.4689 165.513C93.9389 165.633 89.3639 165.693 84.8939 165.708ZM85.7939 164.583C90.0539 164.343 94.2239 164.133 98.4389 164.013L97.7039 164.763L97.8089 142.098L98.9489 142.743C94.4189 145.278 89.2589 146.298 84.1289 145.908L84.9389 145.203C84.6539 150.993 84.8789 156.843 85.6439 162.588C85.7339 163.143 85.8839 164.028 85.7939 164.613V164.583Z" fill="#1D1D1B"/>
<path d="M111.504 164.598C111.414 164.013 111.564 163.143 111.654 162.573C112.419 156.828 112.629 150.978 112.344 145.188L113.154 145.893C108.024 146.283 102.864 145.263 98.334 142.728L99.474 142.083L99.579 164.748L98.844 163.998C103.044 164.133 107.229 164.343 111.489 164.583L111.504 164.598ZM112.374 165.693C107.904 165.678 103.329 165.633 98.799 165.513C98.394 165.513 98.064 165.168 98.064 164.763L97.959 142.098C97.959 141.678 98.289 141.348 98.709 141.348C103.029 143.553 108.084 144.888 113.004 144.408C113.409 144.378 113.784 144.678 113.814 145.083C113.919 146.763 113.934 148.488 113.919 150.183C113.724 155.358 113.784 160.683 112.374 165.708V165.693Z" fill="#1D1D1B"/>
<path d="M82.2841 84.8286C88.3741 84.8286 93.3241 92.4486 93.3241 101.824C93.3241 111.199 88.3741 118.819 82.2841 118.819C76.1941 118.819 71.2441 111.199 71.2441 101.824C71.2441 92.4486 76.1941 84.8286 82.2841 84.8286ZM82.2841 83.3286C75.3541 83.3286 69.7441 91.6086 69.7441 101.824C69.7441 112.039 75.3541 120.319 82.2841 120.319C89.2141 120.319 94.8241 112.039 94.8241 101.824C94.8241 91.6086 89.2141 83.3286 82.2841 83.3286Z" fill="#1D1D1B"/>
<path d="M82.284 108.258C84.3385 108.258 86.004 105.384 86.004 101.838C86.004 98.2928 84.3385 95.4185 82.284 95.4185C80.2295 95.4185 78.564 98.2928 78.564 101.838C78.564 105.384 80.2295 108.258 82.284 108.258Z" fill="#1D1D1B"/>
<path d="M108.609 107.673C108.609 107.673 115.959 104.433 119.379 104.433C122.799 104.433 133.329 104.883 133.329 104.883C133.329 104.883 125.274 99.3481 117.564 99.3481C109.854 99.3481 108.624 107.673 108.624 107.673H108.609Z" fill="#1D1D1B" stroke="#1D1D1B" stroke-width="1.5" stroke-linejoin="round"/>
<path d="M108.865 107.418C108.865 107.418 114.955 102.183 118.21 101.178C121.465 100.188 131.68 97.5183 131.68 97.5183C131.68 97.5183 122.35 94.5783 114.985 96.8283C107.62 99.0783 108.865 107.403 108.865 107.403V107.418Z" fill="#1D1D1B" stroke="#1D1D1B" stroke-width="1.5" stroke-linejoin="round"/>
<path d="M157.315 70.1279C167.967 54.6362 218.511 21.216 208.271 47.1574C200.504 66.8311 175.848 77.8633 162.68 81.4919C157.341 82.8678 148.794 82.5213 157.315 70.1279Z" fill="#008CF1"/>
<path d="M160.622 82.0224C161.27 81.8677 161.958 81.6909 162.68 81.4919M162.68 81.4919C175.848 77.8633 200.504 66.8311 208.271 47.1574C218.511 21.216 167.968 54.6362 157.315 70.1279C148.794 82.5213 157.341 82.8678 162.68 81.4919Z" stroke="#0E0E0E" stroke-width="5.5" stroke-linejoin="round"/>
<path d="M144.228 76.2694C149.842 72.3661 149.59 77.3621 152.712 81.8533C155.835 86.3446 159.296 88.5735 153.682 92.4769C148.068 96.3802 140.956 95.9885 132.382 95.9885C135.104 89.3254 138.614 80.1727 144.228 76.2694Z" fill="#D46E00" stroke="black" stroke-width="5.5"/>
<path d="M130.5 149L144 151L129 154.5L145 158.5L130.5 162.5L147 165L130.5 170L141 172.5L130.5 176L133.5 178.5L120.5 182" stroke="#BB7544" stroke-width="3" stroke-linecap="round" stroke-linejoin="round"/>
</svg>
