<svg width="160" height="160" viewBox="0 0 160 160" fill="none" xmlns="http://www.w3.org/2000/svg">
<path d="M124.167 0.5H35.8333V18.1667H18.1667V35.8333H0.5V124.167H18.1667V141.833H35.8333V159.5H124.167V141.833H141.833V124.167H159.5V35.8333H141.833V18.1667H124.167V0.5ZM124.167 18.1667V35.8333H141.833V124.167H124.167V141.833H35.8333V124.167H18.1667V35.8333H35.8333V18.1667H124.167Z" fill="black"/>
<path d="M116.598 98.4296V93.8165H111.985V89.2034H107.359V84.5779H102.746V79.9648H107.359V75.3517H111.985V70.7262H116.598V66.1131H125.836V70.7262H121.211V75.3517H116.598V79.9648H111.985V84.5779H116.598V89.2034H121.211V93.8165H125.836V98.4296H116.598Z" fill="#0A0A0A"/>
<path d="M72.7363 98.4296V93.8165H95.8266V98.4296H72.7363Z" fill="#0A0A0A"/>
<path d="M56.5903 93.8165V66.1131H42.7386V93.8165H56.5903ZM38.1131 98.4296V93.8165H33.5V66.1131H38.1131V61.5H61.2034V66.1131H65.8165V93.8165H61.2034V98.4296H38.1131Z" fill="#0A0A0A"/>
</svg>
