<svg width="225" height="225" viewBox="0 0 225 225" fill="none" xmlns="http://www.w3.org/2000/svg">
<circle opacity="0.5" cx="56" cy="130" r="16.5" fill="#009BFF" stroke="black" stroke-width="3"/>
<circle opacity="0.5" cx="74" cy="112" r="16.5" fill="#009BFF" stroke="black" stroke-width="3"/>
<circle opacity="0.5" cx="65" cy="123" r="16.5" fill="#009BFF" stroke="black" stroke-width="3"/>
<circle opacity="0.5" cx="86" cy="105" r="16.5" fill="#009BFF" stroke="black" stroke-width="3"/>
<circle opacity="0.5" cx="101" cy="98" r="16.5" fill="#009BFF" stroke="black" stroke-width="3"/>
<circle opacity="0.5" cx="113" cy="105" r="16.5" fill="#009BFF" stroke="black" stroke-width="3"/>
<circle opacity="0.5" cx="122" cy="118" r="16.5" fill="#009BFF" stroke="black" stroke-width="3"/>
<circle opacity="0.5" cx="128" cy="130" r="16.5" fill="#009BFF" stroke="black" stroke-width="3"/>
<circle opacity="0.5" cx="146" cy="130" r="16.5" fill="#009BFF" stroke="black" stroke-width="3"/>
<circle opacity="0.5" cx="164" cy="130" r="16.5" fill="#009BFF" stroke="black" stroke-width="3"/>
<circle cx="182" cy="130" r="16.5" fill="#009BFF" stroke="black" stroke-width="3"/>
<circle opacity="0.5" cx="56" cy="112" r="16.5" fill="#009BFF" stroke="black" stroke-width="3"/>
<circle opacity="0.5" cx="56" cy="94" r="16.5" fill="#009BFF" stroke="black" stroke-width="3"/>
<circle opacity="0.5" cx="56" cy="76" r="16.5" fill="#009BFF" stroke="black" stroke-width="3"/>
<path d="M74.9311 201.731L74.6525 199.751L78.6135 199.193L77.2201 189.291L73.2592 189.848L72.9805 187.868L84.8634 186.196L85.1421 188.176L81.1811 188.734L82.5744 198.636L86.5354 198.079L86.8141 200.059L74.9311 201.731ZM88.7946 199.781L87.4013 189.878L99.2842 188.206L99.5629 190.187L101.543 189.908L102.658 197.83L98.697 198.387L97.5824 190.465L91.6409 191.301L92.7556 199.223L88.7946 199.781ZM110.58 196.715L109.465 188.793L105.504 189.351L105.226 187.37L109.187 186.813L108.908 184.832L110.888 184.554L110.61 182.573L116.551 181.737L116.83 183.718L112.869 184.275L113.148 186.256L117.109 185.698L117.387 187.679L113.426 188.236L114.541 196.158L110.58 196.715ZM122.463 195.043L122.184 193.063L120.204 193.341L119.368 187.4L121.348 187.121L121.07 185.141L130.972 183.748L131.251 185.728L133.231 185.449L134.067 191.391L132.087 191.67L132.365 193.65L122.463 195.043ZM124.165 192.784L130.106 191.948L129.27 186.007L123.329 186.843L124.165 192.784ZM136.326 193.093L136.048 191.112L145.95 189.719L145.672 187.738L137.75 188.853L137.471 186.873L135.49 187.151L135.212 185.171L137.192 184.892L136.914 182.912L146.816 181.518L147.095 183.499L139.173 184.613L139.451 186.594L147.373 185.479L147.652 187.46L149.632 187.181L149.911 189.162L147.931 189.44L148.209 191.421L136.326 193.093Z" fill="black"/>
<path d="M113.345 29.7895L115.764 16L119.704 16.691L119.358 18.6609L121.328 19.0064L120.983 20.9763L122.952 21.3218L123.298 19.3519L125.268 19.6973L125.613 17.7274L129.553 18.4184L127.135 32.2079L123.195 31.517L124.577 23.6372L122.607 23.2917L121.916 27.2316L119.946 26.8861L120.637 22.9462L118.667 22.6008L117.285 30.4805L113.345 29.7895ZM131.075 32.8989L131.42 30.9289L129.45 30.5835L130.487 24.6737L132.457 25.0191L132.802 23.0492L142.652 24.7766L142.306 26.7466L144.276 27.092L143.24 33.0018L141.27 32.6564L140.924 34.6263L131.075 32.8989ZM133.39 31.2744L139.3 32.3109L140.336 26.4011L134.427 25.3646L133.39 31.2744ZM150.774 36.3537L152.156 28.474L148.216 27.783L148.562 25.8131L152.501 26.504L153.192 22.5642L157.132 23.2551L156.441 27.195L160.381 27.886L160.036 29.8559L156.096 29.1649L154.714 37.0447L150.774 36.3537ZM168.606 27.298L168.952 25.328L172.892 26.019L172.546 27.9889L168.606 27.298ZM162.594 38.4266L162.939 36.4567L166.879 37.1476L167.915 31.2378L165.946 30.8923L166.291 28.9224L172.201 29.9589L170.819 37.8386L174.759 38.5296L174.413 40.4995L162.594 38.4266ZM178.353 41.1905L178.699 39.2205L176.729 38.875L177.765 32.9652L179.735 33.3107L180.081 31.3408L189.93 33.0682L189.585 35.0381L191.555 35.3836L190.518 41.2934L188.548 40.9479L188.203 42.9179L178.353 41.1905ZM180.669 39.566L186.578 40.6024L187.615 34.6926L181.705 33.6562L180.669 39.566ZM192.143 43.6088L193.87 33.7592L205.69 35.832L205.344 37.802L207.314 38.1475L205.932 46.0272L201.992 45.3362L203.374 37.4565L197.464 36.4201L196.083 44.2998L192.143 43.6088Z" fill="black"/>
<path d="M21.5911 19.3175L22.1087 21.2494L12.4495 23.8376L11.9319 21.9057L21.5911 19.3175ZM10.5176 24.3552L12.4495 23.8376L15.0377 33.4968L13.1058 34.0144L10.5176 24.3552ZM24.0406 20.7317L26.1112 28.4591L16.4519 31.0473L14.899 25.2518L20.6945 23.6989L21.7298 27.5626L23.6617 27.0449L22.1087 21.2494L24.0406 20.7317ZM19.2803 26.1483L17.3485 26.666L17.8661 28.5978L19.798 28.0802L19.2803 26.1483ZM15.5553 35.4287L15.0377 33.4968L24.6969 30.9086L25.2146 32.8405L15.5553 35.4287ZM29.5959 33.737L29.0783 31.8052L42.6012 28.1817L43.1189 30.1136L29.5959 33.737ZM52.5007 11.0353L53.0184 12.9672L43.3591 15.5553L42.8415 13.6235L52.5007 11.0353ZM41.4273 16.073L43.3591 15.5553L45.9473 25.2146L44.0155 25.7322L41.4273 16.073ZM54.9502 12.4495L57.0208 20.1769L47.3615 22.7651L45.8086 16.9696L51.6042 15.4166L52.6394 19.2803L54.5713 18.7627L53.0184 12.9672L54.9502 12.4495ZM50.1899 17.8661L48.2581 18.3838L48.7757 20.3156L50.7076 19.798L50.1899 17.8661ZM46.4649 27.1465L45.9473 25.2146L55.6066 22.6264L56.1242 24.5583L46.4649 27.1465Z" fill="#1F1ED5"/>
<circle opacity="0.5" cx="56" cy="58" r="16.5" fill="#009BFF" stroke="black" stroke-width="3"/>
<path d="M29.5 135.5C33.3333 147 45.2 167 62 155M100 73.0001C110 69.3335 130.5 67.1001 132.5 87.5001M34 46.5C34 71.7 34 60 34 70" stroke="#009BFF" stroke-width="3" stroke-linecap="round" stroke-linejoin="round"/>
</svg>
