<svg width="225" height="225" viewBox="0 0 225 225" fill="none" xmlns="http://www.w3.org/2000/svg">
<rect x="14.8262" y="48" width="191.348" height="117.391" rx="5.86957" fill="black"/>
<circle cx="192.087" cy="159.522" r="2.34783" fill="#00FFDE"/>
<circle cx="182.695" cy="159.522" r="2.34783" fill="#FDE033"/>
<circle cx="173.304" cy="159.522" r="2.34783" fill="#F34336"/>
<rect x="85.2607" y="172.435" width="50.4783" height="10.5652" rx="5.28261" fill="black"/>
<rect x="115.783" y="157.174" width="25.8261" height="10.5652" rx="5.28261" transform="rotate(90 115.783 157.174)" fill="black"/>
<rect x="22" y="53" width="177.261" height="100.957" rx="5.86957" fill="white"/>
<rect x="136.174" y="60" width="58.6957" height="86.8696" rx="2.61136" fill="#F34336"/>
<path d="M138.521 69.6548C138.521 68.2126 139.691 67.0435 141.133 67.0435H189.91C191.352 67.0435 192.521 68.2126 192.521 69.6548V141.91C192.521 143.353 191.352 144.522 189.91 144.522H141.133C139.691 144.522 138.521 143.353 138.521 141.91V69.6548Z" fill="white"/>
<path d="M142.5 128.25V127.5H141.75V126.75H141V124.5H141.75V123.75H142.5V123H146.25V123.75H143.25V124.5H142.5V126.75H143.25V127.5H144.75V126H144V125.25H146.25V128.25H142.5Z" fill="#FDE033"/>
<path d="M147 128.25V124.5H147.75V123.75H148.5V123H150.75V123.75H151.5V124.5H152.25V128.25H150.75V126.75H148.5V128.25H147ZM148.5 126H150.75V124.5H150V123.75H149.25V124.5H148.5V126Z" fill="#FDE033"/>
<path d="M153 128.25V123H154.5V123.75H155.25V124.5H156V123.75H156.75V123H158.25V128.25H156.75V125.25H156V126.75H155.25V125.25H154.5V128.25H153Z" fill="#FDE033"/>
<path d="M159 128.25V123H164.25V123.75H160.5V125.25H163.5V126H160.5V127.5H164.25V128.25H159Z" fill="#FDE033"/>
<path d="M141 136.75V131.5H146.25V132.25H142.5V133.75H145.5V134.5H142.5V136.75H141Z" fill="#FDE033"/>
<path d="M147.75 136.75V136H147V132.25H147.75V131.5H151.5V132.25H152.25V136H151.5V136.75H147.75ZM148.5 136H150.75V132.25H148.5V136Z" fill="#FDE033"/>
<path d="M153 136.75V131.5H157.5V132.25H158.25V134.5H156.75V135.25H157.5V136H158.25V136.75H156V136H155.25V135.25H154.5V136.75H153ZM154.5 134.5H156V133.75H156.75V132.25H154.5V134.5Z" fill="#FDE033"/>
<path d="M159 136.75V131.5H164.25V132.25H160.5V133.75H163.5V134.5H160.5V136H164.25V136.75H159Z" fill="#FDE033"/>
<path d="M167.25 136.75V136H166.5V135.25H165.75V134.5H165V131.5H166.5V133.75H167.25V134.5H168V133.75H168.75V131.5H170.25V134.5H169.5V135.25H168.75V136H168V136.75H167.25Z" fill="#FDE033"/>
<path d="M171 136.75V131.5H176.25V132.25H172.5V133.75H175.5V134.5H172.5V136H176.25V136.75H171Z" fill="#FDE033"/>
<path d="M177 136.75V131.5H181.5V132.25H182.25V134.5H180.75V135.25H181.5V136H182.25V136.75H180V136H179.25V135.25H178.5V136.75H177ZM178.5 134.5H180V133.75H180.75V132.25H178.5V134.5Z" fill="#FDE033"/>
<path d="M58.1304 147.326V145.565H59.8912V143.804H61.6521V142.043H63.413V140.283H61.6521V138.522H59.8912V136.761H58.1304V135H61.6521V136.761H63.413V138.522H65.1738V140.283H66.9347V142.043H65.1738V143.804H63.413V145.565H61.6521V147.326H58.1304Z" fill="#00FFDE"/>
<path d="M53.1303 135V136.761H51.3694V135H53.1303ZM49.6085 136.761H51.3694V138.522H49.6085V136.761ZM47.8477 138.522H49.6085V140.283H47.8477V138.522ZM46.0868 140.283H47.8477V142.043H46.0868V140.283ZM44.3259 142.043H46.0868V143.804H44.3259V142.043ZM42.5651 143.804H44.3259V145.565H42.5651V143.804ZM40.8042 145.565H42.5651V147.326H40.8042V145.565Z" fill="#00FFDE"/>
<path d="M32.2826 147.326V145.565H30.5217V143.804H28.7609V142.043H27V140.283H28.7609V138.522H30.5217V136.761H32.2826V135H35.8043V136.761H34.0435V138.522H32.2826V140.283H30.5217V142.043H32.2826V143.804H34.0435V145.565H35.8043V147.326H32.2826Z" fill="#00FFDE"/>
<path d="M40.8042 72.3261V70.5652H42.5651V68.8043H44.3259V67.0435H46.0868V65.2826H44.3259V63.5217H42.5651V61.7609H40.8042V60H44.3259V61.7609H46.0868V63.5217H47.8477V65.2826H49.6085V67.0435H47.8477V68.8043H46.0868V70.5652H44.3259V72.3261H40.8042Z" fill="#00FFDE"/>
<path d="M32.2826 72.3261V70.5652H30.5217V68.8043H28.7609V67.0435H27V65.2826H28.7609V63.5217H30.5217V61.7609H32.2826V60H35.8043V61.7609H34.0435V63.5217H32.2826V65.2826H30.5217V67.0435H32.2826V68.8043H34.0435V70.5652H35.8043V72.3261H32.2826Z" fill="#00FFDE"/>
<rect x="78.6519" y="78.7827" width="16.4348" height="3.52174" fill="#1F1ED5"/>
<rect x="27" y="78.7827" width="48.1304" height="3.52174" fill="black"/>
<rect x="27" y="88.1738" width="19.9565" height="3.52174" fill="black"/>
<rect x="50.478" y="88.1738" width="58.6957" height="3.52174" fill="#00FFDE"/>
<rect x="66.9126" y="97.5654" width="21.1304" height="3.52174" fill="black"/>
<rect x="27" y="97.5654" width="36.3913" height="3.52174" fill="#1F1ED5"/>
<rect x="92.7388" y="97.5654" width="31.6957" height="3.52174" fill="black"/>
<rect x="27" y="106.957" width="35.2174" height="3.52174" fill="#1F1ED5"/>
<rect x="65.7388" y="106.957" width="35.2174" height="3.52174" fill="black"/>
<rect x="27" y="116.348" width="41.087" height="3.52174" fill="black"/>
<rect x="96.2607" y="116.348" width="15.2609" height="3.52174" fill="black"/>
<rect x="71.6084" y="116.348" width="21.1304" height="3.52174" fill="#00FFDE"/>
<rect x="99.7822" y="129.261" width="19.9565" height="4.69565" transform="rotate(-180 99.7822 129.261)" fill="#1F1ED5"/>
<rect x="76.3042" y="129.261" width="49.3043" height="3.52173" transform="rotate(-180 76.3042 129.261)" fill="black"/>
<path d="M187.104 65.6461V65.0474H190.397V65.6461H187.104Z" fill="white"/>
<path d="M176.327 65.6466V64.9879H176.969V64.3293H177.61V63.6707H176.969V63.0121H176.327V62.3535H177.61V63.0121H178.252V63.6707H178.893V63.0121H179.535V62.3535H180.818V63.0121H180.176V63.6707H179.535V64.3293H180.176V64.9879H180.818V65.6466H179.535V64.9879H178.893V64.3293H178.252V64.9879H177.61V65.6466H176.327Z" fill="white"/>
<path d="M182.337 65.6467V64.9881H181.679V63.0122H182.337V62.3535H185.631V63.0122H186.289V64.9881H185.631V65.6467H182.337ZM182.996 64.9881H184.972V63.0122H182.996V64.9881Z" fill="white"/>
<rect x="140.869" y="74.0869" width="16.4348" height="2.34783" fill="#1F1ED5"/>
<rect x="140.869" y="98.7393" width="25.8261" height="2.34783" fill="#1F1ED5"/>
<rect x="140.869" y="77.6089" width="11.7391" height="2.34783" fill="black"/>
<rect x="140.869" y="102.261" width="19.9565" height="2.34783" fill="black"/>
<rect x="140.869" y="81.1304" width="17.6087" height="2.34783" fill="black"/>
<rect x="140.869" y="105.783" width="24.6522" height="2.34783" fill="black"/>
<rect x="140.869" y="84.6523" width="9.3913" height="2.34783" fill="black"/>
<rect x="140.869" y="109.305" width="15.2609" height="2.34783" fill="black"/>
<rect x="140.869" y="88.1738" width="5.86957" height="2.34783" fill="black"/>
<rect x="140.869" y="112.826" width="15.2609" height="2.34783" fill="black"/>
<rect x="140.869" y="91.6958" width="11.7391" height="2.34783" fill="black"/>
<rect x="174.913" y="118.696" width="17.6087" height="2.34783" transform="rotate(-180 174.913 118.696)" fill="black"/>
<rect x="159.652" y="74.0869" width="9.3913" height="2.34783" fill="black"/>
<rect x="170.217" y="98.7393" width="15.2609" height="2.34783" fill="black"/>
<rect x="154.957" y="77.6089" width="8.21739" height="2.34783" fill="black"/>
<rect x="165.521" y="102.261" width="14.087" height="2.34783" fill="black"/>
<rect x="160.826" y="81.1304" width="4.69565" height="2.34783" fill="#1F1ED5"/>
<rect x="167.869" y="105.783" width="7.04348" height="2.34783" fill="#1F1ED5"/>
<rect x="152.608" y="84.6523" width="16.4348" height="2.34783" fill="black"/>
<rect x="159.652" y="109.305" width="25.8261" height="2.34783" fill="black"/>
<rect x="149.087" y="88.1738" width="9.3913" height="2.34783" fill="#1F1ED5"/>
<rect x="162" y="112.826" width="23.4783" height="2.34783" fill="#1F1ED5"/>
<rect x="154.957" y="91.6958" width="9.3913" height="2.34783" fill="#1F1ED5"/>
<rect x="154.957" y="118.696" width="14.087" height="2.34783" transform="rotate(-180 154.957 118.696)" fill="#1F1ED5"/>
<rect x="172.565" y="74.0869" width="17.6087" height="19.9565" rx="1.17391" fill="#00FFDE"/>
<path d="M162.487 199.805L161.97 197.873L160.038 198.391L159.52 196.459L157.588 196.977L156.035 191.181L157.967 190.663L157.449 188.732L159.381 188.214L158.864 186.282L166.591 184.212L167.109 186.143L169.041 185.626L169.558 187.558L165.695 188.593L165.177 186.661L161.313 187.696L161.831 189.628L159.899 190.146L161.452 195.941L163.384 195.424L163.901 197.356L167.765 196.32L167.247 194.388L171.111 193.353L171.629 195.285L169.697 195.803L170.215 197.735L162.487 199.805ZM176.01 196.182L175.492 194.25L173.561 194.767L173.043 192.836L176.907 191.8L177.424 193.732L183.22 192.179L182.185 188.315L174.457 190.386L173.94 188.454L172.008 188.972L170.972 185.108L172.904 184.59L172.387 182.659L182.046 180.07L182.564 182.002L184.495 181.485L185.013 183.417L181.149 184.452L180.632 182.52L174.836 184.073L175.871 187.937L183.599 185.866L184.116 187.798L186.048 187.28L187.084 191.144L185.152 191.662L185.669 193.593L176.01 196.182ZM191.465 192.04L190.947 190.109L189.015 190.626L188.498 188.694L192.362 187.659L192.879 189.591L198.675 188.038L197.639 184.174L189.912 186.245L189.394 184.313L187.463 184.831L186.427 180.967L188.359 180.449L187.841 178.518L197.501 175.929L198.018 177.861L199.95 177.344L200.468 179.275L196.604 180.311L196.087 178.379L190.291 179.932L191.326 183.795L199.054 181.725L199.571 183.657L201.503 183.139L202.538 187.003L200.607 187.52L201.124 189.452L191.465 192.04Z" fill="#1F1ED5"/>
<path d="M171.449 35.0406L171.967 33.1087L170.035 32.5911L170.553 30.6593L174.417 31.6945L173.899 33.6264L179.695 35.1793L182.8 23.5882L186.664 24.6235L183.558 36.2146L181.626 35.6969L181.109 37.6288L171.449 35.0406ZM186.904 39.1817L187.422 37.2499L185.49 36.7322L186.008 34.8004L189.871 35.8356L189.354 37.7675L195.149 39.3204L196.185 35.4567L188.457 33.3861L188.975 31.4543L187.043 30.9367L188.078 27.073L190.01 27.5906L190.528 25.6587L200.187 28.2469L199.669 30.1788L201.601 30.6964L201.084 32.6283L197.22 31.593L197.738 29.6611L191.942 28.1082L190.907 31.9719L198.634 34.0425L198.116 35.9743L200.048 36.492L199.013 40.3557L197.081 39.838L196.564 41.7699L186.904 39.1817Z" fill="black"/>
<path d="M34.4476 44.4316L32.7134 37.9595L39.1855 36.2253L40.9198 42.6974L34.4476 44.4316Z" fill="#1F1ED5"/>
<path d="M46.8902 34.1608L46.2089 31.6182L43.6662 32.2995L42.9849 29.7568L40.4423 30.4381L39.761 27.8955L37.2184 28.5768L36.5371 26.0342L39.0797 25.3529L38.3984 22.8102L40.941 22.1289L40.2597 19.5863L42.8024 18.905L42.1211 16.3624L47.2064 14.9998L47.8876 17.5424L45.345 18.2237L46.0263 20.7663L43.4837 21.4476L44.165 23.9903L41.6223 24.6716L42.3036 27.2142L44.8463 26.5329L45.5276 29.0755L48.0702 28.3942L48.7515 30.9369L51.2941 30.2556L51.9754 32.7982L46.8902 34.1608Z" fill="#1F1ED5"/>
<path d="M19.7691 41.4279L19.0878 38.8852L21.6304 38.2039L20.9491 35.6613L23.4918 34.98L22.8105 32.4373L25.3531 31.7561L24.6718 29.2134L22.1292 29.8947L21.4479 27.3521L18.9052 28.0334L18.2239 25.4907L15.6813 26.172L15 23.6294L20.0853 22.2668L20.7666 24.8094L23.3092 24.1281L23.9905 26.6708L26.5331 25.9895L27.2144 28.5321L29.7571 27.8508L30.4384 30.3935L27.8957 31.0748L28.577 33.6174L26.0344 34.2987L26.7157 36.8413L24.1731 37.5226L24.8544 40.0653L19.7691 41.4279Z" fill="#1F1ED5"/>
<path d="M10.233 181.461L14.0962 168.005L17.9409 169.109L16.2852 174.876L22.0523 176.531L23.7079 170.764L27.5526 171.868L23.6895 185.325L19.8448 184.221L21.5004 178.454L15.7334 176.798L14.0777 182.565L10.233 181.461ZM31.3788 187.532L34.6901 175.998L30.8454 174.894L31.3973 172.972L42.9314 176.283L42.3795 178.205L38.5348 177.102L35.2235 188.636L31.3788 187.532ZM40.9906 190.291L44.8538 176.835L48.6985 177.939L48.1466 179.861L50.0689 180.413L49.5171 182.335L51.4394 182.887L51.9913 180.965L53.9136 181.517L54.4655 179.594L58.3102 180.698L54.447 194.155L50.6023 193.051L52.8099 185.361L50.8875 184.81L49.7838 188.654L47.8614 188.102L48.9652 184.258L47.0428 183.706L44.8353 191.395L40.9906 190.291ZM58.2917 195.258L62.1549 181.802L65.9996 182.906L62.6883 194.44L70.3777 196.647L69.8258 198.57L58.2917 195.258Z" fill="black"/>
</svg>
