<svg width="886" height="160" viewBox="0 0 886 160" fill="none" xmlns="http://www.w3.org/2000/svg">
<rect x="459.5" y="46.5" width="36" height="36" fill="#FDE033"/>
<rect x="122.5" y="46.5" width="36" height="36" fill="#FDE033"/>
<rect x="651.5" y="46.5" width="36" height="36" fill="#FDE033"/>
<path d="M640.406 153.219V135.766H622.953V153.219H640.406ZM617.125 159.031V153.219H611.312V135.766H617.125V129.953H640.406V112.5H652.031V159.031H617.125Z" fill="#FDE033"/>
<path d="M567.688 159.031V129.953H579.328V135.766H585.141V141.578H579.328V159.031H567.688ZM585.141 135.766V129.953H602.594V135.766H585.141Z" fill="#FDE033"/>
<path d="M547.344 153.219V147.406H529.891V153.219H547.344ZM524.062 159.031V153.219H518.25V147.406H524.062V141.578H547.344V135.766H524.062V129.953H553.156V135.766H558.969V159.031H524.062Z" fill="#FDE033"/>
<path d="M474.625 159.031V153.219H468.812V129.953H480.453V153.219H497.906V129.953H509.531V153.219H503.719V159.031H474.625Z" fill="#FDE033"/>
<path d="M448.469 153.219V135.766H431.016V153.219H448.469ZM425.188 159.031V153.219H419.375V135.766H425.188V129.953H454.281V135.766H460.094V153.219H454.281V159.031H425.188Z" fill="#FDE033"/>
<path d="M369.938 159.031V112.5H381.578V129.953H404.844V135.766H410.656V159.031H399.031V135.766H381.578V159.031H369.938Z" fill="#FDE033"/>
<path d="M332.141 159.031V153.219H326.312V147.406H320.5V124.125H326.312V118.312H332.141V112.5H355.406V118.312H361.219V124.125H349.594V118.312H337.953V124.125H332.141V147.406H337.953V153.219H349.594V147.406H361.219V153.219H355.406V159.031H332.141Z" fill="#FDE033"/>
<path d="M247.812 159.031V129.953H282.719V135.766H288.531V159.031H276.906V135.766H259.453V159.031H247.812Z" fill="#FDE033"/>
<path d="M227.469 153.219V147.406H210.016V153.219H227.469ZM204.188 159.031V153.219H198.375V147.406H204.188V141.578H227.469V135.766H204.188V129.953H233.281V135.766H239.094V159.031H204.188Z" fill="#FDE033"/>
<path d="M178.031 153.219V135.766H160.578V153.219H178.031ZM154.75 159.031V153.219H148.938V135.766H154.75V129.953H183.844V135.766H189.656V153.219H183.844V159.031H154.75Z" fill="#FDE033"/>
<path d="M99.5 159.031V112.5H105.312V118.312H111.141V124.125H116.953V129.953H122.766V135.766H128.594V112.5H140.219V159.031H134.406V153.219H128.594V147.406H122.766V141.578H116.953V135.766H111.141V159.031H99.5Z" fill="#FDE033"/>
<path d="M23.5 141.5H63.5V149.5H71.5V141.5H79.5V133.5H71.5V125.5H63.5V133.5H23.5V93.5H15.5V141.5H23.5ZM63.5 125.5V117.5H55.5V125.5H63.5ZM63.5 149.5V157.5H55.5V149.5H63.5Z" fill="#FDE033"/>
<path d="M686.938 81.9375V47.0312H652.031V81.9375H686.938ZM640.375 93.5625V81.9375H628.75V47.0312H640.375V35.4062H698.562V47.0312H710.188V81.9375H698.562V93.5625H640.375Z" fill="#F8F8F8"/>
<path d="M588 93.5625V35.4062H611.281V93.5625H588ZM588 23.75V0.5H611.281V23.75H588Z" fill="#F8F8F8"/>
<path d="M547.25 93.5625V81.9375H535.625V0.5H558.906V81.9375H570.531V93.5625H547.25Z" fill="#F8F8F8"/>
<path d="M494.938 81.9375V47.0312H460.031V81.9375H494.938ZM448.375 93.5625V81.9375H436.75V47.0312H448.375V35.4062H506.562V47.0312H518.188V81.9375H506.562V93.5625H448.375Z" fill="#F8F8F8"/>
<path d="M372.75 93.5625V47.0312H361.125V35.4062H372.75V12.125H384.406V0.5H419.312V12.125H396.031V35.4062H419.312V47.0312H396.031V93.5625H372.75Z" fill="#F8F8F8"/>
<path d="M308.781 93.5625V81.9375H297.125V47.0312H285.5V35.4062H297.125V0.5H320.406V35.4062H343.688V47.0312H320.406V81.9375H343.688V93.5625H308.781Z" fill="#F8F8F8"/>
<path d="M198.25 93.5625V35.4062H221.531V47.0312H233.156V58.6562H221.531V93.5625H198.25ZM233.156 47.0312V35.4062H268.062V47.0312H233.156Z" fill="#F8F8F8"/>
<path d="M157.562 81.9375V47.0312H122.656V81.9375H157.562ZM111 93.5625V81.9375H99.375V47.0312H111V35.4062H169.188V47.0312H180.812V81.9375H169.188V93.5625H111Z" fill="#F8F8F8"/>
<path d="M58.6875 35.4062V12.125H23.7812V35.4062H58.6875ZM0.5 93.5625V0.5H70.3125V12.125H81.9375V35.4062H70.3125V47.0312H23.7812V93.5625H0.5Z" fill="#F8F8F8"/>
<path d="M850.167 0.5H761.833V18.1667H744.167V35.8333H726.5V124.167H744.167V141.833H761.833V159.5H850.167V141.833H867.833V124.167H885.5V35.8333H867.833V18.1667H850.167V0.5ZM850.167 18.1667V35.8333H867.833V124.167H850.167V141.833H761.833V124.167H744.167V35.8333H761.833V18.1667H850.167Z" fill="#FDE033"/>
<path d="M842.598 98.4295V93.8164H837.985V89.2033H833.359V84.5778H828.746V79.9647H833.359V75.3516H837.985V70.7261H842.598V66.113H851.836V70.7261H847.211V75.3516H842.598V79.9647H837.985V84.5778H842.598V89.2033H847.211V93.8164H851.836V98.4295H842.598Z" fill="#F8F8F8"/>
<path d="M798.736 98.4295V93.8164H821.827V98.4295H798.736Z" fill="#F8F8F8"/>
<path d="M782.59 93.8165V66.1131H768.739V93.8165H782.59ZM764.113 98.4296V93.8165H759.5V66.1131H764.113V61.5H787.203V66.1131H791.816V93.8165H787.203V98.4296H764.113Z" fill="#F8F8F8"/>
</svg>
